<svg viewBox="0 0 72 25" fill="none" xmlns="http://www.w3.org/2000/svg" role="img">
  <title>ALTWORTH</title>
  <path d="M31.7534 8.6024C31.8459 8.62738 32.551 8.62738 33.0068 9.18406C33.6407 9.96199 33.5873 10.7471 33.5837 11.6249C33.573 13.2057 33.6193 14.7759 33.6692 16.346C33.7012 17.3381 33.6051 20.1001 34.1 20.8673C34.3137 21.1992 34.6021 21.4097 34.9582 20.8673C36.9488 17.1382 38.651 13.4234 40.8766 9.5873C41.0012 9.37319 41.4285 8.65949 41.9057 8.69518L45.7089 8.68447C46.8875 8.83435 46.7878 10.4223 46.8519 11.4715C47.0015 13.9373 46.6311 18.323 47.4252 20.4926C47.7386 21.349 48.3867 20.5996 48.6716 20.1357C49.8182 18.2587 50.7833 15.9856 51.8373 14.0229C53.0053 11.8426 53.9632 9.11626 56.7799 8.83078L71.5794 8.75584C71.7468 9.11269 71.0987 10.4651 70.8174 10.5508L60.3979 10.6293C59.8851 10.7078 59.6572 11.0825 59.4507 11.2752C59.0091 11.6891 57.8589 13.5947 57.51 14.2085C55.8648 17.1239 54.5508 20.382 52.9092 23.2832C52.7097 23.6364 52.4106 24.2609 52.0332 24.368C50.5767 24.7819 47.9345 24.8818 46.5421 24.2895C46.3285 24.1967 45.6269 23.8077 45.5166 23.6436C45.3349 23.3688 45.0109 21.5596 44.929 21.1064C44.7937 20.3606 44.694 19.3971 44.6477 18.4514L44.4589 13.7874C44.2168 13.0808 42.3224 17.3773 39.3026 23.094C38.9679 23.7256 38.4729 24.525 37.7643 24.6963C36.5429 24.9925 33.3807 25.178 32.3053 24.55C31.4649 24.0611 31.3332 22.4231 31.2334 21.531C30.9628 19.0652 31.0803 16.5244 31.0803 14.0622C31.0803 13.2664 31.1622 12.2208 31.0803 11.4643C31.0518 11.2145 30.9593 10.772 30.653 10.7899C26.305 10.8541 21.9571 10.5329 17.6198 10.8755C15.9675 11.004 11.5982 11.4536 10.4373 12.567C8.98442 13.9587 7.78436 17.4986 7.25734 19.447C7.12202 19.943 6.79085 21.0671 6.92261 21.5168C7.00095 21.7844 7.45319 22.0877 8.08349 22.3197C9.35476 22.7871 13.9342 22.8942 15.323 22.6551C16.0601 22.5266 16.8506 22.2768 17.2815 21.6274C18.2465 20.1607 19.265 17.0383 19.9166 15.3004C20.3012 14.2727 20.6182 13.195 21.074 12.2137H28.3348C27.1846 15.3183 26.2801 18.298 24.9732 21.2348C23.6664 24.1717 23.4242 24.2038 20.376 24.5749C17.0821 24.9746 13.7633 25.0638 10.4765 24.9603C8.35412 24.8925 2.96279 24.8711 1.40664 23.4295C-0.341802 21.8058 0.562688 19.811 1.24996 17.9197C2.37167 14.8401 3.20494 12.7775 6.22109 11.1824C9.67525 9.35535 15.2161 8.77011 19.1047 8.59883C20.1695 8.55244 21.2484 8.54887 22.3132 8.52746C22.7619 7.38911 23.1643 6.09732 23.2284 4.86619C23.3779 2.0114 20.8211 2.16484 18.7201 1.99356H13.1401L7.37485 2.15414C7.2787 2.05779 7.64193 0.573299 7.77368 0.391306C7.86271 0.269978 9.01291 0.28782 9.58622 0.273546C11.4593 0.230724 13.1971 0.212882 14.8743 0.191471C18.4068 0.141512 22.534 -0.154672 26.0202 0.105827C28.1283 0.262841 29.6702 1.91148 30.069 3.05697C30.596 4.57 30.475 5.3515 29.9159 8.34546C29.8625 8.43111 29.9657 8.6024 30.0227 8.6024H31.7605H31.7534Z" fill="currentColor"/>
</svg>
